<svg xmlns="http://www.w3.org/2000/svg" height="48" viewBox="0 -960 960 960" width="48"><path d="M202-181v32q0 22.1-15.795 37.05Q170.41-97 146.589-97h3.99q-22.329 0-37.954-15.838Q97-128.675 97-151v-328.714L182-737q5.643-19.8 24.384-33.4Q225.124-784 249-784h462q23.876 0 42.616 13.6Q772.357-756.8 778-737l86 257.286V-151q0 22.325-16.495 38.162Q831.01-97 809.081-97h2.989q-23.82 0-39.445-14.95T757-149v-32H202Zm12-352h533l-52-158H265l-51 158Zm76.265 214Q313-319 329-335.049t16-37.833q0-23.451-16.167-39.785Q312.667-429 291.5-429q-24.833 0-40.167 16.147-15.333 16.147-15.333 39T251.39-335q15.389 16 38.875 16Zm380.235 0q23.833 0 39.667-16.049Q726-351.098 726-372.882q0-23.451-15.89-39.785Q694.221-429 671.735-429 648-429 632.5-412.853t-15.5 39Q617-351 632.667-335q15.666 16 37.833 16Z"/></svg>