<svg xmlns="http://www.w3.org/2000/svg" height="48" viewBox="0 -960 960 960" width="48">
<path d="M221.156-88.002v-132.154H89.002v-58.383h132.154v-172.769H89.002v-58.384h132.154v-172.153H89.002v-58.384h132.154v-131.769h58.383v131.769h171.769v-131.769h58.384v131.769h172.153v-131.769h58.384v131.769h131.769v58.384H740.229v172.153h131.769v58.384H740.229v172.769h131.769v58.383H740.229v132.154h-58.384v-132.154H509.692v132.154h-58.384v-132.154H279.539v132.154h-58.383Zm58.383-190.537h171.769v-171.769H279.539v171.769Zm230.153 0h172.153v-171.769H509.692v171.769ZM279.539-509.692h171.769v-172.153H279.539v172.153Zm230.153 0h172.153v-172.153H509.692v172.153Z"/>
<path d="M480-498.924q-63.212 0-103.451-40.24-40.24-40.239-40.24-103.451 0-63.597 40.24-103.644Q416.788-786.306 480-786.306q63.212 0 103.451 40.047 40.24 40.047 40.24 103.644 0 63.212-40.24 103.451-40.239 40.24-103.451 40.24Zm-314.999 341.23v-90.922q0-35.23 18.171-61.528 18.171-26.298 47.291-40.394 65.153-30.077 126.722-44.808 61.569-14.73 122.769-14.73t122.507 15.038q61.308 15.038 126.461 44.5 29.735 14.096 47.906 40.394t18.171 61.528v90.922H165.001Z"/>
</svg>